# xmcd
#
# Track frame offsets:
#	150
#	12588
#	23991
#	39885
#	51632
#	63794
#	80866
#	96517
#	110032
#	119138
#	129310
#	149481
#	160126
#	174953
#	186358
#	200348
#	213897
#	226578
#	238789
#	248573
#	257602
#
# Disc length: 3630 seconds
#
# Revision: 0
# Processed by: cddbd v1.4PL0 Copyright (c) Steve Scherf et al.
# Submitted via: MusicWizard 6.0.0
#
DISCID=2c0e2c15
DTITLE=Johnny Cash - Johnny Cash And His Woman - Give My Love To Rose
DYEAR=2002
DGENRE=Country
TTITLE0=The Color Of Love
TTITLE1=Saturday Night In Hickman County
TTITLE2=Allegheny
TTITLE3=Life Has Its Little Ups And Downs
TTITLE4=Matthew 24 (Is Knocking At The Door)
TTITLE5=The City Of New Orleans
TTITLE6=Tony
TTITLE7=The Pine Tree
TTITLE8=We're For Love
TTITLE9=Godshine
TTITLE10=The Ballad Of Ira Hayes
TTITLE11=Shantytown
TTITLE12=I Got A Woman
TTITLE13=Pack Up Your Sorrows
TTITLE14=It Ain't Me, Babe
TTITLE15=Orange Blossom Special
TTITLE16=Jackson
TTITLE17=Give My Love To Rose
TTITLE18=Austin Prison
TTITLE19=Narration "Danny Boy"
TTITLE20=Danny Boy
EXTD="Johnny Cash and His Woman" released 1973 on Columbia Records as KC 32443\n"Orange Blossom Sp
EXTD=ecial" released 1965 on Columbia Records as CS 9109.
EXTT0=
EXTT1=
EXTT2=
EXTT3=
EXTT4=
EXTT5=
EXTT6=
EXTT7=
EXTT8=
EXTT9=
EXTT10=
EXTT11=
EXTT12=
EXTT13=
EXTT14=
EXTT15=
EXTT16=
EXTT17=
EXTT18=
EXTT19=
EXTT20=
PLAYORDER=
